<svg version="1.2" xmlns="http://www.w3.org/2000/svg" viewBox="0 0 79 28" width="79" height="28">
	<title>logo</title>
	<style>
		tspan { white-space:pre } 
		.s0 { fill: none } 
		.s1 { fill: #ffffff } 
		.t2 { font-size: 25px;fill: #ffffff;font-weight: 700;font-family: "Helvetica-Bold", "Helvetica" } 
	</style>
	<g id="Layer 1">
		<g id="Layer 1">
			<path id="Layer" fill-rule="evenodd" class="s0" d="m4.3 22.4q-3.8 0-7.6 0 0-8.8 0-17.5 4.3 0 8.5 0-0.1 0-0.2 0-0.9 0.1-1.7 0.5c-1.4 0.7-2.3 1.8-2.8 3.2q-1 2.4 0.4 4.7 0.5 0.8 1.1 1.6 0.5 0.7 0.7 1.6c0.1 0.3 0.2 0.4 0.5 0.4q2.3 0 4.6 0 0.1 0 0.2 0 0.3 0 0.4-0.3 0-0.2 0-0.4c0.2-0.5 0.5-1 0.9-1.5 0.5-0.7 1-1.4 1.3-2.1q0.5-1.3 0.4-2.6-0.2-1.2-0.7-2.2c-0.8-1.4-1.9-2.4-3.5-2.8-0.3-0.1-0.6-0.1-0.9-0.1q4.2 0 8.4 0 0 8.7 0 17.5-3.8 0-7.5 0 0.2-0.2 0.2-0.5c0-0.4-0.1-0.6-0.4-0.6q-1.1 0-2.1 0-0.3 0-0.4 0.2c-0.1 0.3 0 0.6 0.2 0.9zm1.2-3.7q1.1 0 2.1 0c0.3 0 0.4 0 0.5-0.3q0.1-0.3-0.1-0.6-0.1-0.2-0.3-0.2-2.2 0-4.3 0-0.2 0-0.3 0.2-0.2 0.3-0.1 0.6c0.1 0.3 0.2 0.3 0.4 0.3q1.1 0 2.1 0zm0 0.8q-1 0-2.1 0c-0.2 0-0.3 0-0.4 0.3q-0.1 0.2 0.1 0.5 0.1 0.2 0.3 0.3 2.1 0 4.3 0 0.2 0 0.3-0.2 0.2-0.3 0.1-0.6c-0.1-0.3-0.2-0.3-0.5-0.3q-1 0-2.1 0z"/>
			<path id="Layer" fill-rule="evenodd" class="s1" d="m5.9 4.9c0.3 0 0.6 0 0.9 0.1 1.6 0.4 2.7 1.4 3.5 2.8q0.5 1 0.7 2.2 0.1 1.3-0.4 2.6c-0.3 0.7-0.8 1.4-1.3 2.1-0.4 0.5-0.7 1-0.9 1.5q0 0.2 0 0.4-0.1 0.3-0.4 0.3-0.1 0-0.2 0-2.3 0-4.6 0c-0.3 0-0.4-0.1-0.5-0.4q-0.2-0.9-0.7-1.6-0.6-0.8-1.1-1.6-1.4-2.3-0.4-4.7c0.5-1.4 1.4-2.5 2.8-3.2q0.8-0.4 1.7-0.5 0.1 0 0.2 0 0.3 0 0.7 0z"/>
			<path id="Layer" fill-rule="evenodd" class="s1" d="m4.3 22.4c-0.2-0.3-0.3-0.6-0.2-0.9q0.1-0.2 0.4-0.2 1 0 2.1 0c0.3 0 0.4 0.2 0.4 0.6q0 0.3-0.2 0.5-1.3 0-2.5 0z"/>
			<path id="Layer" fill-rule="evenodd" class="s1" d="m5.5 18.7q-1 0-2.1 0c-0.2 0-0.3 0-0.4-0.3q-0.1-0.3 0.1-0.6 0.1-0.2 0.3-0.2 2.1 0 4.3 0 0.2 0 0.3 0.2 0.2 0.3 0.1 0.6c-0.1 0.3-0.2 0.3-0.5 0.3q-1 0-2.1 0z"/>
			<path id="Layer" fill-rule="evenodd" class="s1" d="m5.5 19.5q1.1 0 2.1 0c0.3 0 0.4 0 0.5 0.3q0.1 0.3-0.1 0.6-0.1 0.2-0.3 0.2-2.2 0-4.3 0-0.3 0-0.4-0.3-0.1-0.3 0-0.5c0.1-0.3 0.2-0.3 0.4-0.3q1.1 0 2.1 0z"/>
			<g id="Layer 1">
				<text id="Think" style="transform: matrix(.957,0,0,.957,3.557,5.086)" >
					<tspan x="10.1" y="18" class="t2">T</tspan><tspan  y="18" class="t2">h</tspan><tspan  y="18" class="t2">i</tspan><tspan  y="18" class="t2">n</tspan><tspan  y="18" class="t2">k
</tspan>
				</text>
			</g>
		</g>
	</g>
</svg>